<?xml version="1.0" encoding="UTF-8"?>
<svg width="200" id="Layer_1" data-name="Layer 1" xmlns="http://www.w3.org/2000/svg" viewBox="0 0 329.1 89.3">
  <g>
    <path d="M109.9,52.7c2,2.1,5.2,3.9,9.2,3.9s5-1.6,5-3.3-2.5-2.9-5.9-3.7c-4.7-1.1-10.8-2.4-10.8-8.8s4.2-8.7,11-8.7,8.4,1.4,11.3,4l-3.4,4.5c-2.3-2.2-5.5-3.2-8.3-3.2s-4.3,1.2-4.3,3,2.4,2.6,5.8,3.3c4.8,1.1,10.8,2.5,10.8,8.9s-3.8,9.3-11.6,9.3-9.5-1.9-12.3-4.6l3.4-4.7Z" style="stroke-width: 0px;"/>
    <path d="M152.6,61.4l-4.4-14.3-4.4,14.3h-5.9l-6.4-21h5.7l3.9,14.1,4.6-14.1h4.9l4.6,14.1,3.9-14.1h5.7l-6.4,21h-5.9Z" style="stroke-width: 0px;"/>
    <path d="M167,34.1c0-1.8,1.5-3.3,3.3-3.3s3.3,1.5,3.3,3.3-1.5,3.3-3.3,3.3-3.3-1.5-3.3-3.3ZM167.5,61.4v-21h5.5v21h-5.5Z" style="stroke-width: 0px;"/>
    <path d="M185.3,45.3v16.1h-5.6v-16.1h-3.5v-4.8h3.5v-1.1c0-4.6,3-7.3,7.1-7.3s3,.3,4,.9l-1.1,3.9c-.5-.3-1.1-.4-1.8-.4-1.6,0-2.6,1-2.6,3v1h4.3v4.8h-4.3Z" style="stroke-width: 0px;"/>
    <path d="M193.8,56.2v-10.9h-3.5v-4.8h3.5v-5.7h5.6v5.7h4.3v4.8h-4.3v9.5c0,1.3.7,2.3,1.9,2.3s1.6-.3,1.9-.6l1.2,4.2c-.8.7-2.3,1.3-4.6,1.3-3.9,0-5.9-2-5.9-5.7Z" style="stroke-width: 0px;"/>
    <path d="M220,52.7c2,2.1,5.2,3.9,9.2,3.9s5-1.6,5-3.3-2.5-2.9-5.9-3.7c-4.7-1.1-10.8-2.4-10.8-8.8s4.2-8.7,11-8.7,8.4,1.4,11.3,4l-3.4,4.5c-2.3-2.2-5.5-3.2-8.3-3.2s-4.3,1.2-4.3,3,2.4,2.6,5.8,3.3c4.8,1.1,10.8,2.5,10.8,8.9s-3.8,9.3-11.6,9.3-9.5-1.9-12.3-4.6l3.4-4.7Z" style="stroke-width: 0px;"/>
    <path d="M245.1,56.2v-10.9h-3.5v-4.8h3.5v-5.7h5.6v5.7h4.3v4.8h-4.3v9.5c0,1.3.7,2.3,1.9,2.3s1.6-.3,1.9-.6l1.2,4.2c-.8.7-2.3,1.3-4.6,1.3-3.9,0-5.9-2-5.9-5.7Z" style="stroke-width: 0px;"/>
    <path d="M271.3,61.4v-2.2c-1.4,1.7-3.9,2.7-6.6,2.7s-7.3-2.3-7.3-6.9,3.9-6.7,7.3-6.7,5.2.9,6.6,2.6v-2.9c0-2.1-1.8-3.5-4.6-3.5s-4.3.8-6.1,2.5l-2.1-3.7c2.6-2.3,5.9-3.3,9.2-3.3,4.8,0,9.2,1.9,9.2,7.9v13.5h-5.5ZM271.3,53.8c-.9-1.2-2.6-1.8-4.4-1.8s-3.9,1.2-3.9,3.2,1.8,3.1,3.9,3.1,3.5-.6,4.4-1.8v-2.6Z" style="stroke-width: 0px;"/>
    <path d="M282.2,61.4v-21h5.5v2.9c1.5-1.9,4.1-3.3,6.7-3.3v5.4c-.4,0-.9-.1-1.5-.1-1.8,0-4.3,1-5.2,2.3v13.8h-5.5Z" style="stroke-width: 0px;"/>
    <path d="M298.9,56.2v-10.9h-3.5v-4.8h3.5v-5.7h5.6v5.7h4.3v4.8h-4.3v9.5c0,1.3.7,2.3,1.9,2.3s1.6-.3,1.9-.6l1.2,4.2c-.8.7-2.3,1.3-4.6,1.3-3.9,0-5.9-2-5.9-5.7Z" style="stroke-width: 0px;"/>
    <path d="M313.1,54.8c1.5,1.4,4.6,2.9,7.2,2.9s3.5-.8,3.5-2.1-1.8-2-4.2-2.5c-3.6-.7-8.2-1.6-8.2-6.6s3.1-6.6,8.6-6.6,6.4,1.2,8.4,2.9l-2.2,3.8c-1.3-1.3-3.6-2.4-6.2-2.4s-3.3.7-3.3,2,1.6,1.8,4,2.3c3.6.7,8.4,1.6,8.4,6.9s-3.3,6.7-9.1,6.7-7.2-1.2-9.4-3.3l2.4-3.9Z" style="stroke-width: 0px;"/>
  </g>
  <g>
    <path d="M64.9,59.5c3.7-1.6,6.4-4.9,5.3-9.7-.6-2.8-3.3-5.3-6.1-5.8-2.3-.4-4.4.2-6.4,1-6.6,2.7-13.1,5.5-19.7,8.2-5.5,2.3-10.9,1.8-15.5-1.8-2.3-1.8-4-3.9-5-6.3-2.4-5.7-1.2-12.4,3.3-16.9,0,0,0,0,.1-.1.6-.6,1.4-1.2,2.1-1.8,0,0,.2-.1.3-.2.4-.3.8-.5,1.2-.7,2.3-1.3,4.8-2.2,7.2-3.2,4.8-1.9,9.6-4.1,14.5-5.8,2.3-.8,4.3-2.4,5.5-4.7,2-3.7.3-8.7-3.6-10.8-1.2-.7-2.7-1.2-4.1-.8-2.3.6-4.5,1.4-6.7,2.4-3.6,1.7-7.4,3-11.1,4.5-3.6,1.5-7,3.2-10.5,5.1-6.2,3.4-10.6,8.4-13.4,15.5C.9,30.6.2,34.3,0,38.1c-.6,13.5,8.7,27.7,23.4,31.5,7.3,1.9,14.2,1.3,21-1.5,6.8-2.8,13.6-5.7,20.4-8.6Z" style="fill: #00fcc8; stroke-width: 0px;"/>
    <path d="M72.3,19.7c-7.3-1.9-14.2-1.3-21,1.5-6.8,2.8-13.6,5.7-20.4,8.6-3.7,1.6-6.4,4.9-5.3,9.7.6,2.8,3.3,5.3,6.1,5.8,2.3.4,4.4-.2,6.4-1,6.6-2.7,13.1-5.5,19.7-8.2,5.5-2.3,10.9-1.8,15.5,1.8,2.3,1.8,4,3.9,5,6.3,2.4,5.7,1.2,12.4-3.3,16.9,0,0,0,0-.1.1-.6.6-1.4,1.2-2.1,1.8,0,0-.2.1-.3.2-.4.3-.8.5-1.2.7-2.3,1.3-4.8,2.2-7.2,3.2-4.8,1.9-9.6,4.1-14.5,5.8-2.3.8-4.3,2.4-5.5,4.7-2,3.7-.3,8.7,3.6,10.8,1.2.7,2.7,1.2,4.1.8,2.3-.6,4.5-1.4,6.7-2.4,3.6-1.7,7.4-3,11.1-4.5,3.6-1.5,7-3.2,10.5-5.1,6.2-3.4,10.6-8.4,13.4-15.5,1.3-3,2-6.6,2.2-10.4.6-13.5-8.7-27.7-23.4-31.5Z" style="fill: #00fcc8; stroke-width: 0px;"/>
  </g>
</svg>